<?xml version="1.0" encoding="utf-8"?>
<!-- Generator: Adobe Illustrator 17.0.0, SVG Export Plug-In . SVG Version: 6.00 Build 0)  -->
<!DOCTYPE svg PUBLIC "-//W3C//DTD SVG 1.1//EN" "http://www.w3.org/Graphics/SVG/1.1/DTD/svg11.dtd">
<svg version="1.1" xmlns="http://www.w3.org/2000/svg" xmlns:xlink="http://www.w3.org/1999/xlink" x="0px" y="0px" width="68px"
	 height="19px" viewBox="0 0 68 19" enable-background="new 0 0 68 19" xml:space="preserve">
<g id="Background">
</g>
<g id="LOGOTYPE">
	<g id="Main">
		<g id="I">
		</g>
		<g id="R">
		</g>
		<g id="A">
		</g>
		<g id="N">
		</g>
		<g id="O">
			<g id="Sec.1">
			</g>
			<g id="Sec.2_1_">
			</g>
		</g>
		<g id="U">
		</g>
		<g id="S">
			<g>
				<g>
					<g id="Up_18_">
						<path fill="#B62027" d="M2.5,2.8v1.4c0,0.3-0.2,0.5-0.5,0.5H0.5C0.2,4.7,0,4.5,0,4.2V2.8c0-0.3,0.2-0.5,0.5-0.5H2
							C2.2,2.3,2.5,2.5,2.5,2.8z"/>
					</g>
					<g>
						<g id="Down_18_">
							<path fill="#B62027" d="M2.5,6.9v9.3c0,0.3-0.2,0.5-0.5,0.5H0.5c-0.3,0-0.5-0.2-0.5-0.5V6.9c0-0.3,0.2-0.5,0.5-0.5H2
								C2.2,6.4,2.5,6.6,2.5,6.9z"/>
						</g>
						<g id="R_9_">
							<path fill="#B62027" d="M9,6.9v1.4c0,0.3-0.2,0.5-0.5,0.5H7.4c-0.6,0-1,0.5-1,1v6.3c0,0.3-0.2,0.5-0.5,0.5H4.4
								c-0.3,0-0.5-0.2-0.5-0.5V8.4c0-1.1,0.9-2.1,2.1-2.1h2.6C8.8,6.4,9,6.6,9,6.9z"/>
						</g>
						<g id="A_9_">
							<g>
								<path fill="#B62027" d="M20.2,6.4h-7.7c-1.1,0-2.1,0.9-2.1,2.1v6.2c0,1.1,0.9,2.1,2.1,2.1h7.7c0.3,0,0.5-0.2,0.5-0.5V6.9
									C20.7,6.6,20.5,6.4,20.2,6.4z M18.2,14.2h-4.3c-0.6,0-1-0.5-1-1V9.9c0-0.6,0.5-1,1-1h4.3V14.2z"/>
							</g>
						</g>
						<g id="N_9_">
							<path fill="#B62027" d="M30.4,6.4c1.1,0,2.1,0.9,2.1,2.1v7.7c0,0.3-0.2,0.5-0.5,0.5h-1.4c-0.3,0-0.5-0.2-0.5-0.5V9.9
								c0-0.6-0.5-1-1-1h-4.3v7.3c0,0.3-0.2,0.5-0.5,0.5h-1.4c-0.3,0-0.5-0.2-0.5-0.5V6.9c0-0.3,0.2-0.5,0.5-0.5H30.4z"/>
						</g>
						<g>
							<g id="Down_17_">
								<g>
									<path fill="#B62027" d="M42.5,6.4h-1.9V6.1c0-0.3-0.2-0.5-0.5-0.5h-1.4c-0.3,0-0.5,0.2-0.5,0.5v0.3h-1.9
										c-1.1,0-2,0.9-2,2.1v6.2c0,1.1,0.9,2.1,2.1,2.1h6.2c1.1,0,2.1-0.9,2.1-2.1V8.5C44.5,7.4,43.6,6.4,42.5,6.4z M42,13.2
										c0,0.6-0.5,1-1,1h-3.3c-0.6,0-1-0.5-1-1V9.9c0-0.6,0.5-1,1-1H41c0.6,0,1,0.5,1,1V13.2z"/>
								</g>
							</g>
							<g id="Up_17_">
								<path fill="#B62027" d="M41.8,2.8v1.4c0,0.3-0.2,0.5-0.5,0.5h-3.9c-0.3,0-0.5-0.2-0.5-0.5V2.8c0-0.3,0.2-0.5,0.5-0.5h3.9
									C41.6,2.3,41.8,2.5,41.8,2.8z"/>
							</g>
						</g>
						<g id="U_9_">
							<path fill="#B62027" d="M56.2,6.9v7.7c0,1.1-0.9,2.1-2.1,2.1H48c-1.1,0-2.1-0.9-2.1-2.1V6.9c0-0.3,0.2-0.5,0.5-0.5h1.4
								c0.3,0,0.5,0.2,0.5,0.5v6.3c0,0.6,0.5,1,1,1h3.3c0.6,0,1-0.5,1-1V6.9c0-0.3,0.2-0.5,0.5-0.5h1.4C56,6.4,56.2,6.6,56.2,6.9z"
								/>
						</g>
						<g id="S_9_">
							<path fill="#B62027" d="M60.2,8.9v1.4h5.8c1.1,0,2.1,0.9,2.1,2.1v2.3c0,1.1-0.9,2.1-2.1,2.1h-7.7c-0.3,0-0.5-0.2-0.5-0.5
								v-1.4c0-0.3,0.2-0.5,0.5-0.5h7.3v-1.4h-5.8c-1.1,0-2.1-0.9-2.1-2.1V8.4c0-1.1,0.9-2.1,2.1-2.1h7.7c0.3,0,0.5,0.2,0.5,0.5v1.4
								c0,0.3-0.2,0.5-0.5,0.5H60.2z"/>
						</g>
					</g>
				</g>
			</g>
		</g>
	</g>
	<g id="FA">
		<g id="TEXT">
		</g>
	</g>
	<g id="Slogan">
		<g id="TEXT_1_">
		</g>
	</g>
</g>
</svg>
